<?xml version="1.0" standalone="no"?>
<!DOCTYPE svg PUBLIC "-//W3C//DTD SVG 20010904//EN"
 "http://www.w3.org/TR/2001/REC-SVG-20010904/DTD/svg10.dtd">
<svg version="1.0" xmlns="http://www.w3.org/2000/svg"
 width="64.000000pt" height="64.000000pt" viewBox="0 0 64.000000 64.000000"
 preserveAspectRatio="xMidYMid meet">

<g transform="translate(0.000000,64.000000) scale(0.100000,-0.100000)"
fill="#fff" stroke="none">
<path d="M16 624 c-14 -13 -16 -55 -16 -304 0 -249 2 -291 16 -304 13 -14 50
-16 246 -16 215 0 230 1 223 18 -4 9 -6 22 -5 27 1 6 4 142 7 303 l4 292 -230
0 c-195 0 -232 -2 -245 -16z m304 -269 l0 -265 -150 0 -150 0 0 258 c0 142 3
262 7 265 3 4 71 7 150 7 l143 0 0 -265z m80 -35 l0 -300 -30 0 -30 0 0 300 0
300 30 0 30 0 0 -300z m70 35 l0 -265 -25 0 -25 0 0 265 0 265 25 0 25 0 0
-265z m-150 -310 l0 -25 -144 0 c-145 0 -164 5 -152 35 4 12 33 15 151 15
l145 0 0 -25z m133 18 c-7 -2 -19 -2 -25 0 -7 3 -2 5 12 5 14 0 19 -2 13 -5z
m7 -33 c0 -5 -9 -10 -20 -10 -11 0 -20 5 -20 10 0 6 9 10 20 10 11 0 20 -4 20
-10z"/>
<path d="M40 50 c0 -6 50 -10 130 -10 80 0 130 4 130 10 0 6 -50 10 -130 10
-80 0 -130 -4 -130 -10z"/>
<path d="M572 623 c-5 -10 -12 -34 -16 -53 -3 -20 -15 -43 -26 -53 -18 -15
-20 -29 -20 -116 0 -91 2 -100 20 -106 18 -6 20 -16 21 -118 2 -149 7 -171 41
-175 24 -3 27 1 37 48 13 62 15 502 2 516 -5 5 -11 22 -13 39 -4 35 -32 46
-46 18z m25 -50 c-4 -17 -4 -17 -12 0 -4 9 -4 25 0 35 8 16 8 16 12 0 3 -10 3
-26 0 -35z m23 -33 c0 -5 -11 -10 -25 -10 -14 0 -25 5 -25 10 0 6 11 10 25 10
14 0 25 -4 25 -10z m0 -230 l0 -200 -25 0 -25 0 0 200 0 200 25 0 25 0 0 -200z
m-70 101 c0 -50 -4 -93 -10 -96 -6 -4 -10 28 -10 89 0 57 4 96 10 96 6 0 10
-36 10 -89z m66 -337 c-3 -9 -6 -24 -6 -35 0 -27 -26 -24 -34 4 -10 39 -7 47
20 47 20 0 25 -4 20 -16z"/>
</g>
</svg>
