<?xml version="1.0" standalone="no"?>
<!DOCTYPE svg PUBLIC "-//W3C//DTD SVG 20010904//EN"
 "http://www.w3.org/TR/2001/REC-SVG-20010904/DTD/svg10.dtd">
<svg version="1.0" xmlns="http://www.w3.org/2000/svg"
 width="64.000000pt" height="64.000000pt" viewBox="0 0 64.000000 64.000000"
 preserveAspectRatio="xMidYMid meet">

<g transform="translate(0.000000,64.000000) scale(0.100000,-0.100000)"
fill="#fff" stroke="none">
<path d="M108 629 c-10 -5 -18 -19 -18 -29 0 -11 -6 -20 -14 -20 -7 0 -25 -9
-40 -21 l-26 -20 0 -213 c0 -271 -10 -256 164 -256 103 0 126 -3 137 -17 21
-24 89 -53 129 -53 70 0 155 59 179 123 25 65 3 155 -48 201 -18 16 -21 30
-21 98 0 92 -17 143 -51 151 -13 4 -32 20 -41 37 -10 17 -25 30 -37 30 -23 0
-51 -25 -51 -46 0 -11 -18 -14 -87 -14 -87 0 -88 0 -105 30 -18 31 -40 37 -70
19z m50 -57 c3 -29 1 -32 -22 -32 -19 0 -26 5 -26 19 0 58 43 70 48 13z m280
0 c3 -27 0 -32 -17 -32 -17 0 -21 6 -21 36 0 28 3 35 18 32 11 -2 18 -14 20
-36z m-348 -42 c0 -17 7 -20 46 -20 37 0 47 4 51 20 5 18 14 20 94 20 82 0 89
-2 89 -20 0 -17 7 -20 46 -20 38 0 47 4 51 20 8 28 35 21 47 -11 20 -59 19
-59 -239 -59 l-235 0 0 33 c0 34 15 57 37 57 7 0 13 -9 13 -20z m430 -129 l0
-38 -42 9 c-127 29 -254 -100 -218 -222 5 -19 10 -38 10 -43 0 -4 -51 -6 -113
-5 l-112 3 -3 168 -2 167 240 0 240 0 0 -39z m8 -78 c72 -53 92 -139 51 -213
-58 -103 -199 -106 -273 -6 -32 43 -29 132 6 178 15 19 42 42 60 52 42 21 120
16 156 -11z"/>
<path d="M422 223 l3 -58 43 0 c50 0 62 19 15 23 -32 3 -33 5 -33 48 0 33 -4
44 -15 44 -13 0 -15 -11 -13 -57z"/>
</g>
</svg>
